<?xml version="1.0" standalone="no"?>
<!DOCTYPE svg PUBLIC "-//W3C//DTD SVG 20010904//EN"
 "http://www.w3.org/TR/2001/REC-SVG-20010904/DTD/svg10.dtd">
<svg version="1.0" xmlns="http://www.w3.org/2000/svg"
 width="187.000000pt" height="187.000000pt" viewBox="0 0 187.000000 187.000000"
 preserveAspectRatio="xMidYMid meet">
<metadata>
Created by potrace 1.14, written by Peter Selinger 2001-2017
</metadata>
<g transform="translate(0.000000,187.000000) scale(0.100000,-0.100000)"
fill="#000000" stroke="none">
<path d="M1389 1300 c-70 -21 -118 -80 -159 -198 l-28 -77 -47 1 c-94 2 -124
92 -59 182 16 21 15 22 -4 22 -29 0 -89 -54 -113 -102 -35 -69 -23 -149 26
-165 32 -10 108 -12 153 -3 40 7 42 6 42 -17 0 -22 -3 -24 -32 -19 -91 14
-170 -76 -169 -196 0 -96 46 -158 118 -158 27 0 70 22 85 44 4 7 18 0 36 -17
20 -19 38 -27 65 -27 69 0 147 48 128 79 -7 11 -15 10 -44 -7 -34 -22 -34 -22
-52 -2 -19 20 -33 112 -28 182 4 71 12 154 15 168 2 8 25 25 52 39 144 76 195
215 97 265 -33 17 -43 18 -82 6z m83 -100 c-3 -32 -44 -83 -87 -110 -20 -12
-38 -20 -40 -18 -8 8 43 105 70 132 32 33 61 31 57 -4z m-278 -407 c-2 -102
-8 -131 -29 -152 -13 -14 -17 -14 -30 0 -49 48 -14 239 43 239 16 0 17 -9 16
-87z"/>
<path d="M582 1102 c-19 -17 -26 -33 -23 -59 0 -6 15 -16 31 -22 59 -20 106
25 79 75 -15 29 -57 32 -87 6z"/>
<path d="M433 1085 c-33 -14 -49 -51 -31 -72 6 -7 25 -13 44 -13 43 0 68 31
52 66 -14 30 -28 34 -65 19z"/>
<path d="M1633 991 c-118 -54 -166 -137 -110 -189 28 -26 82 -29 142 -7 53 19
82 19 89 -1 8 -22 4 -25 -38 -29 -131 -13 -213 -43 -223 -83 -22 -89 97 -148
197 -97 54 27 110 98 110 138 0 11 8 17 23 17 28 0 54 16 43 27 -4 4 -20 8
-34 8 -21 0 -28 6 -32 25 -12 62 -46 81 -127 75 l-58 -4 40 19 c22 11 52 24
68 29 34 12 34 33 2 66 -31 30 -37 30 -92 6z m117 -277 c0 -9 -16 -32 -35 -51
-31 -31 -39 -34 -75 -30 -36 4 -69 27 -70 49 0 12 41 30 79 35 20 3 38 7 40 9
2 2 17 4 33 4 19 0 28 -5 28 -16z"/>
<path d="M50 981 c-32 -9 -40 -45 -41 -188 0 -127 8 -205 25 -215 17 -12 71
-9 83 3 7 7 8 20 4 33 -23 62 22 226 63 226 18 0 24 -17 20 -60 -2 -19 -4 -63
-5 -97 -3 -105 38 -137 121 -95 40 19 46 45 12 50 -21 3 -23 8 -18 40 3 20 9
78 12 128 6 85 5 93 -15 113 -11 11 -33 21 -48 21 -37 0 -110 -45 -128 -80
-21 -40 -25 -38 -14 8 16 70 12 101 -17 112 -14 6 -26 10 -27 9 -1 -1 -13 -4
-27 -8z"/>
<path d="M728 982 c-31 -6 -43 -69 -43 -228 0 -173 5 -187 64 -182 l36 3 2 64
c2 70 32 158 64 187 28 25 35 10 10 -22 -25 -32 -26 -38 -5 -59 32 -32 103 7
130 72 40 94 -19 167 -100 123 -13 -6 -39 -37 -59 -67 -42 -63 -43 -63 -22 -3
20 56 19 77 -5 97 -19 17 -41 22 -72 15z"/>
<path d="M1392 956 c-14 -16 -20 -38 -21 -88 -3 -100 21 -101 64 -3 15 33 34
68 42 78 20 21 15 27 -30 31 -27 3 -41 -2 -55 -18z"/>
<path d="M502 929 c-48 -14 -118 -86 -130 -134 -25 -95 12 -184 89 -213 58
-23 166 6 190 49 16 30 3 36 -30 12 -15 -12 -34 -23 -42 -24 -23 -5 -53 9 -66
30 -11 17 -7 22 32 45 128 76 147 230 29 241 -21 2 -54 0 -72 -6z m63 -59 c3
-37 -16 -87 -46 -122 l-28 -33 -1 31 c0 37 24 119 41 140 16 20 32 13 34 -16z"/>
</g>
</svg>
